<svg width="60" height="60" viewBox="0 0 60 60" fill="none" xmlns="http://www.w3.org/2000/svg">
<path d="M53.0912 12.0416L34.9088 2.11921C33.5862 1.39747 31.843 1 30 1C28.157 1 26.4138 1.39747 25.0912 2.11921L6.90884 12.0416C4.15607 13.5443 2 17.0742 2 20.0776V39.9255C2 42.9294 4.15607 46.4593 6.90884 47.9615L25.0912 57.8813C26.4138 58.603 28.157 59 30 59C31.843 59 33.5862 58.6025 34.9088 57.8813L53.0912 47.9569C55.8439 46.4546 58 42.9248 58 39.9208V20.073C58 17.0767 55.8439 13.5443 53.0912 12.0416ZM7.92442 46.2943C5.81526 45.1436 4.0328 42.2257 4.0328 39.9229V31.4409C10.5065 30.9594 14.3414 32.5802 19.1297 34.6176C23.4385 36.4518 28.6201 38.6526 37.0873 39.8383C35.5055 40.1255 33.9074 40.3894 32.3159 40.6513C23.6692 42.0773 15.4917 43.4352 11.0208 47.9837L7.92442 46.2943ZM35.2361 29.0298C31.3292 30.498 26.2404 31.8136 18.7146 32.3379C15.3875 30.9408 12.2202 29.7603 8.07059 29.4876L21.8961 16.4205L32.1135 26.0779L35.2361 29.0298ZM34.2701 25.3999L44.2111 16.0039L51.6834 23.0667C47.3822 23.4368 44.3714 24.8772 41.034 26.4825C39.8706 27.0419 38.6341 27.6348 37.2569 28.223L34.2701 25.3999ZM55.9661 39.9229C55.9661 42.2257 54.1842 45.1436 52.0739 46.2943L33.8911 56.2172C32.8908 56.7652 31.4727 57.0817 30 57.0817C28.5273 57.0817 27.1092 56.7678 26.1078 56.2198L12.8245 48.9683C16.925 45.14 24.585 43.8765 32.665 42.5433C41.7736 41.0426 51.1505 39.4924 55.9672 33.934L55.9661 39.9229ZM55.9661 30.3433C53.8286 34.7253 48.9667 37.0225 43.1731 38.533C33.1918 37.8484 27.31 35.8925 22.4889 33.9247C32.347 32.8086 37.624 30.2737 41.9541 28.1915C46.2183 26.1408 49.6348 24.5091 55.9661 24.9751V30.3433ZM55.9661 23.0476C55.4496 23.0115 54.9445 22.9857 54.4607 22.9749L44.931 13.9666C44.8367 13.8774 44.7247 13.8066 44.6014 13.7583C44.4781 13.71 44.3459 13.6852 44.2124 13.6852C44.079 13.6852 43.9468 13.71 43.8235 13.7583C43.7002 13.8066 43.5882 13.8774 43.4938 13.9666L32.8362 24.0415L22.6155 14.3831C22.5211 14.2939 22.4091 14.2231 22.2858 14.1749C22.1625 14.1266 22.0303 14.1017 21.8969 14.1017C21.7634 14.1017 21.6313 14.1266 21.508 14.1749C21.3847 14.2231 21.2726 14.2939 21.1783 14.3831L5.23765 29.452C4.84549 29.4649 4.44569 29.484 4.03771 29.5128V20.0787C4.03771 17.7758 5.82016 14.8574 7.92933 13.7067L26.1127 3.78385C27.1163 3.23585 28.535 2.92189 30.0049 2.92189C31.4748 2.92189 32.8957 3.23585 33.8971 3.78385L52.0799 13.7067C54.1902 14.8584 55.9721 17.7758 55.9721 20.0787L55.9661 23.0476Z" fill="#F7FBFB"/>
</svg>
