<svg width="32" height="32" viewBox="0 0 32 32" fill="none" xmlns="http://www.w3.org/2000/svg">
<path d="M15.9993 9.33337C8.63935 9.33337 2.66602 12.32 2.66602 16C2.66602 18.9867 6.58602 21.5067 11.9993 22.36V25.0534C11.9993 25.6534 12.7193 25.9467 13.1327 25.52L16.8527 21.8C17.1193 21.5334 17.1193 21.12 16.8527 20.8534L13.1327 17.1334C13.0387 17.0412 12.9195 16.979 12.7902 16.9545C12.6609 16.9299 12.5272 16.9442 12.406 16.9956C12.2848 17.0469 12.1815 17.133 12.1091 17.2429C12.0368 17.3529 11.9986 17.4818 11.9993 17.6134V19.64C7.79935 18.8934 5.33268 17.1067 5.33268 16C5.33268 14.5867 9.38601 12 15.9993 12C22.6127 12 26.666 14.5867 26.666 16C26.666 16.88 25.066 18.24 22.2393 19.12C21.6927 19.2934 21.3327 19.8 21.3327 20.3734C21.3327 21.2667 22.1993 21.92 23.0393 21.6534C26.8127 20.48 29.3327 18.3867 29.3327 16C29.3327 12.32 23.3593 9.33337 15.9993 9.33337Z" fill="#5B86A1"/>
</svg>
