<svg aria-hidden="true" style="position: absolute; width: 0; height: 0; overflow: hidden;" version="1.1" xmlns="http://www.w3.org/2000/svg" xmlns:xlink="http://www.w3.org/1999/xlink">
<defs>
<symbol id="icon-logo" viewBox="0 0 32 32">
<path d="M28.315 6.422l-9.697-5.292c-0.705-0.385-1.635-0.597-2.618-0.597s-1.913 0.212-2.618 0.597l-9.697 5.292c-1.468 0.801-2.618 2.684-2.618 4.286v10.586c0 1.602 1.15 3.485 2.618 4.286l9.697 5.291c0.705 0.385 1.635 0.597 2.618 0.597s1.913-0.212 2.618-0.597l9.697-5.293c1.468-0.801 2.618-2.684 2.618-4.286v-10.585c0-1.598-1.15-3.482-2.618-4.283zM4.226 24.69c-1.125-0.614-2.076-2.17-2.076-3.398v-4.524c3.453-0.257 5.498 0.608 8.052 1.694 2.298 0.978 5.062 2.152 9.577 2.784-0.844 0.153-1.696 0.294-2.545 0.434-4.612 0.761-8.973 1.485-11.357 3.911l-1.651-0.901zM18.793 15.483c-2.084 0.783-4.798 1.485-8.811 1.764-1.774-0.745-3.464-1.375-5.677-1.52l7.374-6.969 7.115 6.725zM18.277 13.547l5.302-5.011 3.985 3.767c-2.294 0.197-3.9 0.966-5.68 1.822-0.62 0.298-1.28 0.615-2.014 0.928l-1.593-1.506zM29.849 21.292c0 1.228-0.95 2.784-2.076 3.398l-9.698 5.292c-0.534 0.292-1.29 0.461-2.075 0.461s-1.542-0.167-2.076-0.46l-7.084-3.867c2.187-2.042 6.272-2.716 10.582-3.427 4.858-0.8 9.859-1.627 12.428-4.592l-0.001 3.194zM29.849 16.183c-1.14 2.337-3.733 3.562-6.823 4.368-5.323-0.365-8.46-1.408-11.032-2.458 5.258-0.595 8.072-1.947 10.381-3.058 2.274-1.094 4.096-1.964 7.473-1.715v2.863zM29.849 12.292c-0.275-0.019-0.545-0.033-0.803-0.039l-5.082-4.804c-0.050-0.048-0.11-0.085-0.176-0.111s-0.136-0.039-0.207-0.039c-0.071 0-0.142 0.013-0.207 0.039s-0.125 0.064-0.176 0.111l-5.684 5.373-5.451-5.151c-0.050-0.048-0.11-0.085-0.176-0.111s-0.136-0.039-0.207-0.039c-0.071 0-0.142 0.013-0.207 0.039s-0.126 0.063-0.176 0.111l-8.502 8.037c-0.209 0.007-0.422 0.017-0.64 0.032v-5.032c0-1.228 0.951-2.785 2.076-3.398l9.698-5.292c0.535-0.292 1.292-0.46 2.076-0.46s1.542 0.167 2.076 0.46l9.698 5.292c1.125 0.614 2.076 2.17 2.076 3.398l-0.003 1.583z"></path>
</symbol>
<symbol id="icon-close" viewBox="0 0 32 32">
<path stroke-linejoin="round" stroke-linecap="round" stroke-miterlimit="4" stroke-width="3.5556" d="M29.333 29.333l-26.667-26.667M29.333 2.667l-26.667 26.667"></path>
</symbol>
<symbol id="icon-checkbox" viewBox="0 0 32 32">
<path stroke-linejoin="miter" stroke-linecap="butt" stroke-miterlimit="4" stroke-width="1.3333" d="M0.667 0.667h30.667v30.667h-30.667v-30.667z"></path>
</symbol>
<symbol id="icon-checkmark" viewBox="0 0 32 32">
<path stroke-linejoin="round" stroke-linecap="round" stroke-miterlimit="4" stroke-width="1.6" d="M26 8l-14 16-6-6"></path>
</symbol>
<symbol id="icon-telegram" viewBox="0 0 32 32">
<path d="M15.993 2.667c-2.637 0-5.215 0.782-7.408 2.247s-3.902 3.547-4.911 5.984c-1.009 2.436-1.273 5.117-0.759 7.704s1.784 4.962 3.649 6.827c1.865 1.865 4.241 3.135 6.827 3.649s5.267 0.25 7.704-0.759c2.436-1.009 4.519-2.718 5.984-4.911s2.247-4.77 2.247-7.408c0-1.751-0.345-3.485-1.015-5.102s-1.652-3.088-2.89-4.326-2.708-2.22-4.326-2.89c-1.618-0.67-3.351-1.015-5.102-1.015zM20.233 22.869c-0.050 0.125-0.126 0.237-0.222 0.33s-0.212 0.164-0.339 0.208-0.261 0.061-0.395 0.049c-0.134-0.012-0.263-0.052-0.38-0.118l-3.62-2.813-2.323 2.144c-0.054 0.040-0.117 0.065-0.183 0.074s-0.134 0.001-0.197-0.022l0.445-3.985 0.013 0.012 0.009-0.079c0 0 6.513-5.931 6.779-6.183 0.269-0.252 0.18-0.307 0.18-0.307 0.016-0.307-0.481 0-0.481 0l-8.631 5.552-3.593-1.224c0 0-0.552-0.197-0.604-0.633-0.055-0.432 0.621-0.667 0.621-0.667l14.289-5.677c0 0 1.175-0.523 1.175 0.344l-2.544 12.995z"></path>
</symbol>
<symbol id="icon-instagram" viewBox="0 0 32 32">
<path d="M10.401 2.667h11.2c4.267 0 7.733 3.467 7.733 7.733v11.2c0 2.051-0.815 4.018-2.265 5.468s-3.417 2.265-5.468 2.265h-11.2c-4.267 0-7.733-3.467-7.733-7.733v-11.2c0-2.051 0.815-4.018 2.265-5.468s3.417-2.265 5.468-2.265zM10.134 5.333c-1.273 0-2.494 0.506-3.394 1.406s-1.406 2.121-1.406 3.394v11.733c0 2.653 2.147 4.8 4.8 4.8h11.733c1.273 0 2.494-0.506 3.394-1.406s1.406-2.121 1.406-3.394v-11.733c0-2.653-2.147-4.8-4.8-4.8h-11.733zM23.001 7.333c0.442 0 0.866 0.176 1.178 0.488s0.488 0.736 0.488 1.178-0.176 0.866-0.488 1.178c-0.313 0.313-0.736 0.488-1.178 0.488s-0.866-0.176-1.179-0.488-0.488-0.736-0.488-1.178c0-0.442 0.176-0.866 0.488-1.178s0.736-0.488 1.179-0.488zM16.001 9.333c1.768 0 3.464 0.702 4.714 1.953s1.953 2.946 1.953 4.714c0 1.768-0.702 3.464-1.953 4.714s-2.946 1.953-4.714 1.953c-1.768 0-3.464-0.702-4.714-1.953s-1.953-2.946-1.953-4.714c0-1.768 0.702-3.464 1.953-4.714s2.946-1.953 4.714-1.953zM16.001 12c-1.061 0-2.078 0.421-2.828 1.172s-1.172 1.768-1.172 2.828 0.421 2.078 1.172 2.828c0.75 0.75 1.768 1.172 2.828 1.172s2.078-0.421 2.828-1.172c0.75-0.75 1.172-1.768 1.172-2.828s-0.421-2.078-1.172-2.828c-0.75-0.75-1.768-1.172-2.828-1.172z"></path>
</symbol>
<symbol id="icon-facebook" viewBox="0 0 32 32">
<path d="M16.001 2.72c-7.333 0-13.333 5.987-13.333 13.36 0 6.667 4.88 12.2 11.253 13.2v-9.333h-3.387v-3.867h3.387v-2.947c0-3.347 1.987-5.187 5.040-5.187 1.453 0 2.973 0.253 2.973 0.253v3.293h-1.68c-1.653 0-2.173 1.027-2.173 2.080v2.507h3.707l-0.6 3.867h-3.107v9.333c3.142-0.496 6.003-2.099 8.067-4.52s3.194-5.499 3.187-8.68c0-7.373-6-13.36-13.333-13.36z"></path>
</symbol>
<symbol id="icon-place" viewBox="0 0 32 32">
<path d="M16 2.4c-5.307 0-9.6 4.257-9.6 9.52 0 7.14 9.6 17.68 9.6 17.68s9.6-10.54 9.6-17.68c0-5.263-4.293-9.52-9.6-9.52zM16 15.32c-0.909 0-1.781-0.358-2.424-0.996s-1.004-1.502-1.004-2.404c0-0.902 0.361-1.767 1.004-2.404s1.515-0.996 2.424-0.996c0.909 0 1.781 0.358 2.424 0.996s1.004 1.502 1.004 2.404c0 0.902-0.361 1.767-1.004 2.404s-1.515 0.996-2.424 0.996z"></path>
</symbol>
<symbol id="icon-phone" viewBox="0 0 32 32">
<path d="M21.415 1.6h-10.831c-0.898 0-1.758 0.345-2.393 0.959s-0.991 1.446-0.991 2.314v22.255c0 0.868 0.357 1.7 0.991 2.314s1.496 0.959 2.393 0.959h10.831c0.898 0 1.759-0.345 2.393-0.959s0.991-1.446 0.991-2.314v-22.255c0-0.868-0.357-1.7-0.991-2.314s-1.496-0.959-2.393-0.959zM15.999 29.091c-1.124 0-2.031-0.877-2.031-1.964s0.907-1.964 2.031-1.964c1.124 0 2.031 0.877 2.031 1.964s-0.907 1.964-2.031 1.964zM22.091 23.855h-12.185v-18.327h12.185v18.327z"></path>
</symbol>
<symbol id="icon-email" viewBox="0 0 32 32">
<path d="M26.88 5.6h-21.76c-1.496 0-2.706 1.17-2.706 2.6l-0.014 15.6c0 1.43 1.224 2.6 2.72 2.6h21.76c1.496 0 2.72-1.17 2.72-2.6v-15.6c0-1.43-1.224-2.6-2.72-2.6zM26.336 11.125l-9.615 5.746c-0.435 0.26-1.006 0.26-1.442 0l-9.615-5.746c-0.136-0.073-0.256-0.172-0.351-0.291s-0.164-0.254-0.203-0.399c-0.039-0.145-0.046-0.296-0.022-0.443s0.079-0.289 0.162-0.416 0.192-0.236 0.32-0.322c0.128-0.085 0.274-0.145 0.427-0.175s0.311-0.030 0.464-0c0.153 0.030 0.299 0.089 0.427 0.174l9.112 5.447 9.112-5.447c0.129-0.085 0.274-0.144 0.427-0.174s0.311-0.030 0.464 0c0.153 0.030 0.298 0.090 0.427 0.175s0.237 0.195 0.32 0.322c0.083 0.127 0.138 0.268 0.162 0.416s0.016 0.299-0.022 0.443c-0.039 0.145-0.108 0.281-0.203 0.399s-0.215 0.217-0.351 0.291z"></path>
</symbol>
<symbol id="icon-copyright" viewBox="0 0 32 32">
<path stroke-linejoin="round" stroke-linecap="round" stroke-miterlimit="4" stroke-width="3" d="M20 13.5c0 0-1.5-2-4-2s-4.5 2-4.5 4.5c0 2.5 2 4.5 4.5 4.5s4-2 4-2M28.5 16c0 6.904-5.596 12.5-12.5 12.5s-12.5-5.596-12.5-12.5c0-6.904 5.596-12.5 12.5-12.5s12.5 5.596 12.5 12.5z"></path>
</symbol>
<symbol id="icon-switch-left" viewBox="0 0 32 32">
<path d="M19.795 26.4c-0.265-0.004-0.519-0.104-0.712-0.283l-9.991-9.844c-0.188-0.187-0.293-0.439-0.293-0.701s0.105-0.515 0.293-0.701l9.991-9.844c0.194-0.157 0.44-0.237 0.691-0.225s0.488 0.116 0.666 0.291c0.178 0.175 0.283 0.409 0.295 0.656s-0.069 0.49-0.228 0.681l-9.291 9.143 9.291 9.143c0.188 0.187 0.293 0.439 0.293 0.701s-0.105 0.515-0.293 0.701c-0.193 0.179-0.447 0.28-0.712 0.283z"></path>
</symbol>
<symbol id="icon-switch-right" viewBox="0 0 32 32">
<path d="M12.205 26.4c0.265-0.004 0.519-0.104 0.712-0.283l9.991-9.844c0.188-0.187 0.293-0.439 0.293-0.701s-0.105-0.515-0.293-0.701l-9.991-9.844c-0.194-0.157-0.44-0.237-0.691-0.225s-0.488 0.116-0.666 0.291c-0.178 0.175-0.283 0.409-0.295 0.656s0.069 0.49 0.228 0.681l9.291 9.143-9.291 9.143c-0.188 0.187-0.293 0.439-0.293 0.701s0.105 0.515 0.293 0.701c0.193 0.179 0.447 0.28 0.712 0.283z"></path>
</symbol>
<symbol id="icon-flip-btn" viewBox="0 0 32 32">
<path d="M15.999 9.333c-7.36 0-13.333 2.987-13.333 6.667 0 2.987 3.92 5.507 9.333 6.36v2.693c0 0.6 0.72 0.893 1.133 0.467l3.72-3.72c0.267-0.267 0.267-0.68 0-0.947l-3.72-3.72c-0.094-0.092-0.213-0.154-0.342-0.179s-0.263-0.010-0.384 0.041c-0.121 0.051-0.225 0.137-0.297 0.247s-0.111 0.239-0.11 0.37v2.027c-4.2-0.747-6.667-2.533-6.667-3.64 0-1.413 4.053-4 10.667-4s10.667 2.587 10.667 4c0 0.88-1.6 2.24-4.427 3.12-0.547 0.173-0.907 0.68-0.907 1.253 0 0.893 0.867 1.547 1.707 1.28 3.773-1.173 6.293-3.267 6.293-5.653 0-3.68-5.973-6.667-13.333-6.667z"></path>
</symbol>
<symbol id="icon-star" viewBox="0 0 32 32">
<path d="M15.247 6.173c0.237-0.764 1.268-0.764 1.505 0l1.913 6.165c0.106 0.342 0.41 0.573 0.753 0.573h6.189c0.767 0 1.085 1.028 0.465 1.499l-5.007 3.81c-0.277 0.211-0.393 0.585-0.288 0.927l1.913 6.165c0.237 0.764-0.598 1.399-1.218 0.927l-5.007-3.81c-0.277-0.211-0.653-0.211-0.93 0l-5.007 3.81c-0.62 0.472-1.455-0.163-1.218-0.927l1.913-6.165c0.106-0.342-0.010-0.716-0.288-0.927l-5.007-3.81c-0.62-0.472-0.301-1.499 0.465-1.499h6.189c0.343 0 0.647-0.231 0.753-0.573l1.913-6.165z"></path>
</symbol>
<symbol id="icon-burger-menu" viewBox="0 0 32 32">
<path fill="none" stroke="#f7fbfb" style="stroke: var(--color1, #f7fbfb)" stroke-linejoin="miter" stroke-linecap="round" stroke-miterlimit="10" stroke-width="2.4" d="M4.8 9.6h22.4M4.8 16h22.4M4.8 21.6h22.4"></path>
</symbol>
<symbol id="icon-star-icon" viewBox="0 0 32 32">
<path fill="#f7fbfb" style="fill: var(--color1, #f7fbfb)" d="M15.247 6.173c0.237-0.764 1.268-0.764 1.505 0l1.913 6.165c0.106 0.342 0.41 0.573 0.753 0.573h6.189c0.767 0 1.085 1.028 0.465 1.499l-5.007 3.81c-0.277 0.211-0.393 0.585-0.288 0.927l1.913 6.165c0.237 0.764-0.598 1.399-1.218 0.927l-5.007-3.81c-0.277-0.211-0.653-0.211-0.93 0l-5.007 3.81c-0.62 0.472-1.455-0.163-1.218-0.927l1.913-6.165c0.106-0.342-0.010-0.716-0.288-0.927l-5.007-3.81c-0.62-0.472-0.301-1.499 0.465-1.499h6.189c0.343 0 0.647-0.231 0.753-0.573l1.913-6.165z"></path>
</symbol>
<symbol id="icon-btn-go-back-up" viewBox="0 0 32 32">
<path fill="#000100" style="fill: var(--color1, #000100)" d="M16.663 0.266c0.012 0.011 0.025 0.023 0.038 0.034 0 0.017 0 0.033 0 0.050 0.025 0.008 0.049 0.017 0.075 0.025 0 0.017 0 0.033 0 0.050 0.017 0 0.033 0 0.050 0 0.045 0.056 0.087 0.112 0.128 0.17 0.012 0.016 0.023 0.032 0.035 0.048 0.087 0.122 0.087 0.122 0.087 0.206 0.017 0 0.033 0 0.050 0 0.038 0.047 0.038 0.047 0.078 0.109 0.014 0.020 0.027 0.040 0.041 0.061 0.031 0.054 0.031 0.054 0.031 0.104 0.017 0 0.033 0 0.050 0 0.013 0.024 0.026 0.048 0.040 0.074 0.064 0.112 0.14 0.216 0.216 0.32 0.021 0.030 0.021 0.030 0.043 0.060 0.063 0.087 0.127 0.173 0.191 0.26 0.018 0.024 0.036 0.048 0.055 0.073 0.016 0.021 0.031 0.041 0.047 0.063 0.032 0.051 0.032 0.051 0.032 0.127 0.017 0 0.033 0 0.050 0 0.038 0.047 0.038 0.047 0.078 0.109 0.020 0.030 0.020 0.030 0.041 0.062 0.031 0.054 0.031 0.054 0.031 0.104 0.017 0 0.033 0 0.050 0 0.013 0.024 0.026 0.049 0.040 0.074 0.064 0.112 0.14 0.216 0.216 0.32 0.021 0.030 0.021 0.030 0.043 0.060 0.063 0.087 0.127 0.174 0.191 0.26 0.018 0.024 0.036 0.048 0.055 0.073 0.016 0.021 0.031 0.041 0.047 0.063 0.032 0.052 0.032 0.052 0.032 0.127 0.017 0 0.033 0 0.050 0 0.038 0.047 0.038 0.047 0.078 0.109 0.014 0.020 0.027 0.041 0.041 0.062 0.031 0.054 0.031 0.054 0.031 0.104 0.017 0 0.033 0 0.050 0 0.013 0.024 0.026 0.049 0.040 0.074 0.064 0.112 0.14 0.216 0.216 0.32 0.014 0.020 0.029 0.040 0.043 0.060 0.063 0.087 0.127 0.173 0.191 0.26 0.018 0.024 0.036 0.048 0.055 0.073 0.016 0.021 0.031 0.041 0.047 0.063 0.032 0.051 0.032 0.051 0.032 0.127 0.017 0 0.033 0 0.050 0 0.038 0.047 0.038 0.047 0.078 0.109 0.014 0.020 0.027 0.040 0.041 0.061 0.031 0.054 0.031 0.054 0.031 0.104 0.017 0 0.033 0 0.050 0 0.013 0.024 0.026 0.048 0.040 0.074 0.064 0.112 0.14 0.215 0.216 0.32 0.014 0.020 0.029 0.040 0.043 0.060 0.063 0.087 0.127 0.173 0.191 0.26 0.018 0.024 0.036 0.048 0.055 0.073 0.016 0.021 0.031 0.041 0.047 0.063 0.032 0.051 0.032 0.051 0.032 0.127 0.017 0 0.033 0 0.050 0 0.038 0.047 0.038 0.047 0.078 0.109 0.014 0.020 0.027 0.040 0.041 0.061 0.031 0.054 0.031 0.054 0.031 0.104 0.017 0 0.033 0 0.050 0 0.013 0.024 0.026 0.048 0.040 0.074 0.064 0.112 0.14 0.215 0.216 0.32 0.021 0.030 0.021 0.030 0.043 0.060 0.063 0.087 0.127 0.173 0.191 0.26 0.018 0.024 0.036 0.048 0.055 0.073 0.016 0.021 0.031 0.041 0.047 0.063 0.032 0.051 0.032 0.051 0.032 0.127 0.017 0 0.033 0 0.050 0 0.038 0.047 0.038 0.047 0.078 0.109 0.014 0.020 0.027 0.040 0.041 0.061 0.031 0.054 0.031 0.054 0.031 0.104 0.017 0 0.033 0 0.050 0 0.013 0.024 0.026 0.048 0.040 0.074 0.064 0.112 0.14 0.215 0.216 0.32 0.021 0.030 0.021 0.030 0.043 0.060 0.063 0.087 0.127 0.173 0.191 0.26 0.018 0.024 0.036 0.048 0.055 0.073 0.016 0.021 0.031 0.041 0.047 0.063 0.032 0.052 0.032 0.052 0.032 0.127 0.017 0 0.033 0 0.050 0 0.038 0.047 0.038 0.047 0.078 0.109 0.014 0.020 0.027 0.040 0.041 0.062 0.031 0.054 0.031 0.054 0.031 0.104 0.017 0 0.033 0 0.050 0 0.013 0.024 0.026 0.049 0.040 0.074 0.064 0.112 0.14 0.216 0.216 0.32 0.021 0.030 0.021 0.030 0.043 0.060 0.063 0.087 0.127 0.174 0.191 0.259 0.018 0.024 0.036 0.048 0.055 0.073 0.016 0.021 0.031 0.041 0.047 0.063 0.032 0.052 0.032 0.052 0.032 0.127 0.017 0 0.033 0 0.050 0 0.038 0.047 0.038 0.047 0.078 0.109 0.014 0.020 0.027 0.040 0.041 0.062 0.031 0.054 0.031 0.054 0.031 0.104 0.017 0 0.033 0 0.050 0 0.020 0.036 0.020 0.036 0.040 0.073 0.066 0.116 0.145 0.223 0.224 0.33 0.239 0.326 0.348 0.587 0.311 0.997-0.021 0.091-0.054 0.168-0.1 0.25-0.016 0.029-0.016 0.029-0.032 0.058-0.147 0.241-0.35 0.403-0.618 0.492-0.125 0.017-0.25 0.018-0.377 0.018-0.035 0.001-0.071 0.001-0.107 0.001-0.093 0.001-0.185 0.001-0.277 0.001-0.095 0-0.189 0.001-0.284 0.002-0.185 0.002-0.37 0.002-0.555 0.003 0.017 0.024 0.033 0.047 0.050 0.072 0.050 0.078 0.050 0.078 0.050 0.128 0.017 0 0.033 0 0.050 0 0.040 0.049 0.040 0.049 0.087 0.117 0.076 0.107 0.154 0.213 0.235 0.317 0.010 0.014 0.020 0.027 0.031 0.041 0.055 0.072 0.11 0.143 0.166 0.213 0.011 0.014 0.023 0.029 0.034 0.044 0.032 0.040 0.064 0.081 0.095 0.121 0.046 0.065 0.075 0.122 0.101 0.197 0.017 0 0.033 0 0.050 0 0.036 0.043 0.070 0.088 0.103 0.134 0.018 0.025 0.036 0.050 0.055 0.075 0.042 0.065 0.042 0.065 0.042 0.115 0.017 0 0.033 0 0.050 0 0.031 0.034 0.031 0.034 0.065 0.080 0.018 0.025 0.018 0.025 0.037 0.050 0.012 0.018 0.025 0.035 0.038 0.053s0.026 0.035 0.039 0.053c0.095 0.131 0.095 0.131 0.095 0.188 0.017 0 0.033 0 0.050 0 0.036 0.043 0.070 0.088 0.103 0.134 0.018 0.025 0.036 0.050 0.055 0.075 0.042 0.065 0.042 0.065 0.042 0.115 0.017 0 0.033 0 0.050 0 0.043 0.055 0.084 0.111 0.123 0.168 0.022 0.032 0.044 0.063 0.066 0.095 0.010 0.015 0.021 0.030 0.032 0.046 0.024 0.034 0.049 0.066 0.074 0.099 0.029 0.042 0.029 0.042 0.029 0.092 0.017 0 0.033 0 0.050 0 0.040 0.049 0.040 0.049 0.087 0.117 0.076 0.107 0.154 0.213 0.235 0.317 0.015 0.020 0.015 0.020 0.031 0.041 0.055 0.072 0.11 0.143 0.166 0.213 0.011 0.014 0.023 0.029 0.034 0.044 0.032 0.040 0.064 0.081 0.095 0.121 0.046 0.065 0.075 0.122 0.101 0.197 0.017 0 0.033 0 0.050 0 0.036 0.043 0.070 0.088 0.103 0.134 0.018 0.025 0.036 0.050 0.055 0.076 0.042 0.065 0.042 0.065 0.042 0.115 0.017 0 0.033 0 0.050 0 0.036 0.043 0.070 0.088 0.103 0.134 0.018 0.025 0.036 0.050 0.055 0.076 0.042 0.065 0.042 0.065 0.042 0.115 0.017 0 0.033 0 0.050 0 0.008 0.033 0.017 0.066 0.025 0.1 0.017 0 0.033 0 0.050 0 0.036 0.043 0.070 0.088 0.103 0.134 0.018 0.025 0.036 0.050 0.055 0.076 0.042 0.065 0.042 0.065 0.042 0.115 0.017 0 0.033 0 0.050 0 0.036 0.043 0.070 0.088 0.103 0.134 0.018 0.025 0.036 0.050 0.055 0.076 0.042 0.065 0.042 0.065 0.042 0.115 0.017 0 0.033 0 0.050 0 0.030 0.035 0.030 0.035 0.064 0.084 0.012 0.018 0.025 0.036 0.038 0.054s0.026 0.038 0.040 0.058c0.099 0.143 0.199 0.282 0.309 0.416 0.083 0.102 0.163 0.207 0.244 0.313 0.031 0.041 0.063 0.081 0.096 0.121 0.169 0.211 0.23 0.482 0.22 0.748-0.023 0.2-0.107 0.358-0.209 0.53-0.017 0-0.033 0-0.050 0-0.007 0.016-0.014 0.032-0.020 0.048-0.030 0.052-0.030 0.052-0.105 0.077 0 0.016 0 0.033 0 0.050-0.050 0.036-0.050 0.036-0.117 0.075-0.022 0.013-0.044 0.026-0.066 0.039-0.022 0.012-0.044 0.024-0.067 0.036-0.017 0.009-0.033 0.017-0.050 0.027-0.113 0.035-0.224 0.030-0.342 0.029-0.040 0-0.040 0-0.081 0-0.088 0-0.177-0-0.266-0.001-0.061 0-0.123-0-0.184-0-0.162-0-0.323-0.001-0.485-0.001-0.165-0-0.33-0.001-0.495-0.001-0.324-0-0.648-0.001-0.971-0.002 0.016 0.028 0.032 0.055 0.048 0.084 0.009 0.016 0.018 0.031 0.027 0.047 0.029 0.049 0.061 0.096 0.096 0.141 0.012 0.016 0.024 0.032 0.037 0.049 0.025 0.033 0.050 0.067 0.076 0.1 0.093 0.124 0.093 0.124 0.093 0.179 0.017 0 0.033 0 0.050 0 0.058 0.064 0.075 0.087 0.075 0.175 0.017 0 0.033 0 0.050 0 0.032 0.036 0.032 0.036 0.067 0.087 0.020 0.028 0.020 0.028 0.040 0.056 0.014 0.020 0.028 0.041 0.043 0.061 0.029 0.042 0.059 0.084 0.089 0.125 0.015 0.020 0.029 0.041 0.044 0.063 0.054 0.075 0.111 0.148 0.168 0.222 0.099 0.128 0.194 0.257 0.288 0.389 0.013 0.018 0.026 0.037 0.040 0.056 0.012 0.017 0.024 0.035 0.037 0.052 0.011 0.015 0.022 0.031 0.033 0.047 0.026 0.043 0.026 0.043 0.052 0.117 0.017 0 0.033 0 0.050 0 0.075 0.11 0.075 0.11 0.075 0.175 0.017 0 0.033 0 0.050 0 0.033 0.038 0.033 0.038 0.070 0.090 0.013 0.019 0.026 0.038 0.040 0.057s0.027 0.040 0.042 0.061c0.014 0.020 0.028 0.039 0.042 0.059 0.103 0.147 0.103 0.147 0.131 0.233 0.017 0 0.033 0 0.050 0 0.075 0.11 0.075 0.11 0.075 0.175 0.017 0 0.033 0 0.050 0 0 0.025 0 0.049 0 0.075 0.017 0 0.033 0 0.050 0 0.035 0.041 0.035 0.041 0.076 0.096 0.015 0.020 0.029 0.040 0.044 0.061s0.030 0.042 0.046 0.064c0.015 0.021 0.031 0.042 0.047 0.064 0.113 0.158 0.113 0.158 0.113 0.215 0.017 0 0.033 0 0.050 0 0.075 0.11 0.075 0.11 0.075 0.175 0.017 0 0.033 0 0.050 0 0.032 0.037 0.032 0.037 0.068 0.088 0.020 0.028 0.020 0.028 0.041 0.057 0.014 0.020 0.029 0.041 0.043 0.061 0.030 0.042 0.059 0.084 0.089 0.125 0.015 0.020 0.029 0.041 0.044 0.062 0.050 0.070 0.101 0.138 0.153 0.206 0.109 0.144 0.215 0.291 0.32 0.438 0.013 0.018 0.026 0.036 0.040 0.055 0.013 0.018 0.026 0.035 0.038 0.054 0.053 0.072 0.107 0.142 0.162 0.213 0.027 0.041 0.027 0.041 0.027 0.091 0.017 0 0.033 0 0.050 0 0.032 0.037 0.032 0.037 0.068 0.089 0.013 0.019 0.026 0.038 0.040 0.057s0.027 0.040 0.041 0.060c0.027 0.039 0.053 0.078 0.080 0.116 0.012 0.017 0.024 0.035 0.036 0.052 0.025 0.035 0.050 0.070 0.077 0.104 0.033 0.047 0.033 0.047 0.033 0.097 0.017 0 0.033 0 0.050 0 0.008 0.033 0.017 0.066 0.025 0.1 0.017 0 0.033 0 0.050 0 0 0.025 0 0.049 0 0.075 0.017 0 0.033 0 0.050 0 0.034 0.038 0.034 0.038 0.072 0.091 0.014 0.020 0.028 0.039 0.042 0.059s0.029 0.041 0.044 0.063c0.014 0.020 0.029 0.040 0.043 0.060 0.24 0.336 0.355 0.583 0.324 1.003-0.028 0.164-0.091 0.322-0.2 0.45-0.017 0-0.033 0-0.050 0-0.007 0.016-0.014 0.032-0.020 0.048-0.030 0.052-0.030 0.052-0.105 0.077 0 0.017 0 0.033 0 0.050-0.036 0.029-0.036 0.029-0.086 0.061-0.016 0.010-0.032 0.020-0.048 0.031-0.233 0.117-0.45 0.118-0.705 0.117-0.042 0-0.084 0-0.127 0-0.116 0-0.232 0-0.348-0-0.125-0-0.25-0-0.375 0-0.216 0-0.433-0-0.649-0.001-0.313-0-0.626-0.001-0.939-0.001-0.508-0-1.016-0.001-1.523-0.002-0.493-0.001-0.986-0.001-1.48-0.002-0.030 0-0.061 0-0.092 0-0.153-0-0.305-0-0.458-0-1.265-0.001-2.53-0.002-3.796-0.004 0 0.025 0 0.025 0 0.050 0.002 0.403 0.004 0.805 0.005 1.208 0 0.195 0.001 0.39 0.002 0.584 0.001 0.17 0.002 0.34 0.002 0.509 0 0.090 0 0.18 0.001 0.27 0.001 0.101 0.001 0.201 0.001 0.302 0 0.029 0.001 0.059 0.001 0.089-0.001 0.257-0.081 0.445-0.212 0.663-0.017 0-0.033 0-0.050 0-0.010 0.024-0.010 0.024-0.020 0.048-0.030 0.052-0.030 0.052-0.105 0.077-0.008 0.025-0.017 0.049-0.025 0.075-0.116 0.098-0.213 0.115-0.36 0.114-0.020 0-0.040 0-0.060 0.001-0.042 0-0.084 0-0.125-0-0.064-0-0.127 0.001-0.191 0.002-0.383 0.002-0.383 0.002-0.539-0.141 0-0.017 0-0.033 0-0.050-0.016-0.007-0.032-0.014-0.049-0.020-0.052-0.029-0.052-0.029-0.076-0.105-0.017 0-0.033 0-0.050 0-0.030-0.036-0.030-0.036-0.061-0.086-0.010-0.016-0.021-0.032-0.031-0.049-0.102-0.204-0.118-0.387-0.117-0.614 0-0.032 0-0.064 0-0.096 0-0.086 0-0.172 0.001-0.259 0-0.090 0.001-0.181 0.001-0.271 0-0.171 0.001-0.342 0.002-0.513 0.001-0.195 0.001-0.39 0.002-0.585 0.001-0.401 0.002-0.801 0.004-1.201-0.021 0-0.043 0-0.065 0-1.274 0.002-2.547 0.004-3.821 0.005-0.153 0-0.306 0-0.459 0-0.030 0-0.061 0-0.092 0-0.493 0-0.986 0.001-1.479 0.002-0.505 0.001-1.011 0.002-1.517 0.002-0.312 0-0.624 0-0.936 0.002-0.214 0-0.428 0-0.642 0-0.123 0-0.247 0-0.37 0-0.113 0-0.226 0-0.339 0-0.041 0-0.082 0-0.122 0-0.22 0.002-0.409-0.006-0.607-0.112-0.027-0.014-0.027-0.014-0.054-0.029-0.041-0.023-0.081-0.047-0.121-0.071 0-0.017 0-0.033 0-0.050-0.016-0.007-0.032-0.014-0.048-0.020-0.051-0.029-0.051-0.029-0.077-0.105-0.016 0-0.033 0-0.050 0-0.183-0.216-0.219-0.481-0.208-0.754 0.022-0.241 0.15-0.424 0.284-0.621 0.012-0.019 0.024-0.037 0.037-0.056 0.028-0.041 0.058-0.080 0.088-0.119 0.016 0 0.033 0 0.050 0 0.003-0.015 0.006-0.030 0.010-0.046 0.016-0.055 0.016-0.055 0.066-0.13 0.016 0 0.033 0 0.050 0 0.005-0.017 0.010-0.033 0.016-0.050 0.048-0.105 0.116-0.189 0.186-0.28 0.027-0.036 0.055-0.072 0.082-0.108 0.012-0.015 0.024-0.031 0.037-0.047 0.031-0.041 0.031-0.041 0.054-0.090 0.016 0 0.033 0 0.050 0 0.008-0.020 0.016-0.039 0.024-0.059 0.027-0.066 0.027-0.066 0.051-0.116 0.016 0 0.033 0 0.050 0 0.007-0.015 0.014-0.029 0.021-0.044 0.048-0.093 0.108-0.177 0.167-0.262 0.013-0.018 0.025-0.037 0.038-0.056 0.018-0.026 0.018-0.026 0.037-0.053 0.011-0.016 0.022-0.032 0.033-0.049 0.015-0.017 0.015-0.017 0.030-0.035 0.016 0 0.033 0 0.050 0 0.008-0.020 0.016-0.039 0.024-0.059 0.027-0.066 0.027-0.066 0.051-0.116 0.016 0 0.033 0 0.050 0 0.007-0.015 0.014-0.029 0.021-0.044 0.028-0.053 0.058-0.101 0.093-0.15 0.013-0.018 0.025-0.035 0.038-0.053s0.026-0.037 0.040-0.056 0.054-0.076 0.081-0.114c0.013-0.018 0.026-0.037 0.040-0.056 0.032-0.045 0.063-0.090 0.094-0.135 0.015-0.023 0.030-0.045 0.046-0.068 0.013-0.019 0.026-0.039 0.040-0.059 0.011-0.013 0.021-0.026 0.032-0.040 0.016 0 0.033 0 0.050 0 0.005-0.017 0.011-0.033 0.016-0.050 0.047-0.102 0.112-0.185 0.181-0.273 0.027-0.035 0.053-0.069 0.079-0.104 0.019-0.025 0.019-0.025 0.038-0.050 0.033-0.044 0.063-0.089 0.092-0.136 0.021-0.031 0.021-0.031 0.043-0.062 0.016 0 0.033 0 0.050 0 0.008-0.020 0.016-0.039 0.024-0.059 0.027-0.066 0.027-0.066 0.051-0.116 0.016 0 0.033 0 0.050 0 0.006-0.017 0.011-0.035 0.017-0.052 0.040-0.089 0.096-0.16 0.156-0.235 0.061-0.076 0.12-0.151 0.169-0.235 0.011-0.017 0.022-0.035 0.033-0.052 0.016 0 0.033 0 0.050 0 0.008-0.020 0.016-0.039 0.024-0.059 0.027-0.066 0.027-0.066 0.051-0.116 0.016 0 0.033 0 0.050 0 0.007-0.014 0.013-0.028 0.020-0.043 0.032-0.061 0.067-0.118 0.105-0.176 0.013-0.020 0.026-0.040 0.039-0.061 0.012-0.015 0.024-0.030 0.036-0.046 0.016 0 0.033 0 0.050 0 0.003-0.015 0.005-0.029 0.007-0.044 0.022-0.069 0.053-0.106 0.101-0.161 0.124-0.151 0.235-0.309 0.347-0.469 0.012-0.017 0.024-0.034 0.036-0.051 0.024-0.034 0.047-0.068 0.070-0.102 0.029-0.042 0.059-0.083 0.090-0.123 0.017 0 0.033 0 0.050 0 0.008-0.020 0.015-0.039 0.024-0.059 0.027-0.066 0.027-0.066 0.052-0.116 0.017 0 0.033 0 0.050 0 0.005-0.017 0.011-0.033 0.017-0.050 0.045-0.1 0.106-0.182 0.171-0.27 0.012-0.017 0.025-0.035 0.038-0.052 0.012-0.016 0.024-0.033 0.037-0.049 0.011-0.015 0.022-0.030 0.033-0.045 0.010-0.011 0.020-0.021 0.030-0.032 0.017 0 0.033 0 0.050 0 0-0.033 0-0.066 0-0.1-0.014 0-0.028 0-0.042 0-0.339 0.003-0.679 0.006-1.018 0.008-0.164 0.001-0.328 0.002-0.492 0.003-0.159 0.002-0.317 0.003-0.476 0.003-0.060 0-0.121 0.001-0.181 0.002-0.604 0.008-0.604 0.008-0.841-0.166-0.025-0.017-0.050-0.033-0.075-0.050 0-0.017 0-0.033 0-0.050-0.016-0.007-0.032-0.014-0.048-0.020-0.051-0.029-0.051-0.029-0.077-0.105-0.016 0-0.033 0-0.050 0-0.024-0.047-0.048-0.094-0.072-0.141-0.013-0.026-0.027-0.052-0.040-0.079-0.112-0.239-0.129-0.479-0.043-0.73 0.025-0.067 0.052-0.134 0.080-0.201 0.016 0 0.033 0 0.050 0 0.002-0.014 0.004-0.027 0.006-0.041 0.026-0.079 0.069-0.132 0.12-0.198 0.021-0.026 0.041-0.053 0.061-0.079 0.010-0.014 0.021-0.027 0.031-0.041 0.066-0.087 0.128-0.177 0.19-0.266 0.013-0.017 0.027-0.033 0.041-0.049 0.016 0 0.033 0 0.050 0 0.007-0.014 0.013-0.028 0.020-0.043 0.032-0.061 0.067-0.118 0.105-0.176 0.013-0.020 0.026-0.040 0.039-0.061 0.012-0.015 0.024-0.030 0.036-0.046 0.016 0 0.033 0 0.050 0 0.006-0.017 0.011-0.035 0.017-0.052 0.041-0.091 0.097-0.162 0.16-0.24 0.082-0.099 0.082-0.099 0.149-0.208 0.016 0 0.033 0 0.050 0 0.009-0.020 0.009-0.020 0.019-0.041 0.039-0.074 0.082-0.142 0.131-0.209 0.016 0 0.033 0 0.050 0 0-0.025 0-0.050 0-0.075 0.016 0 0.033 0 0.050 0 0.009-0.020 0.009-0.020 0.018-0.040 0.043-0.081 0.093-0.154 0.144-0.23 0.010-0.015 0.020-0.030 0.030-0.046 0.026-0.038 0.054-0.074 0.082-0.11 0.016 0 0.033 0 0.050 0 0.005-0.017 0.010-0.033 0.016-0.050 0.047-0.102 0.109-0.192 0.184-0.275 0.016 0 0.033 0 0.050 0 0.005-0.017 0.011-0.034 0.016-0.051 0.045-0.098 0.109-0.172 0.178-0.255 0.101-0.123 0.196-0.246 0.279-0.383 0.009-0.012 0.018-0.024 0.027-0.036 0.016 0 0.033 0 0.050 0 0.007-0.014 0.013-0.028 0.020-0.043 0.032-0.061 0.067-0.118 0.105-0.176 0.013-0.020 0.026-0.040 0.039-0.060 0.012-0.015 0.024-0.030 0.036-0.046 0.017 0 0.033 0 0.050 0 0.005-0.017 0.011-0.034 0.017-0.052 0.041-0.091 0.099-0.162 0.161-0.239 0.108-0.134 0.21-0.27 0.308-0.412 0.013-0.016 0.026-0.031 0.039-0.048 0.017 0 0.033 0 0.050 0 0.006-0.018 0.012-0.036 0.019-0.055 0.034-0.077 0.075-0.131 0.13-0.195s0.101-0.123 0.142-0.196c0.011-0.018 0.023-0.036 0.034-0.055 0.017 0 0.033 0 0.050 0 0.005-0.017 0.010-0.033 0.015-0.050 0.047-0.102 0.109-0.192 0.184-0.275 0.017 0 0.033 0 0.050 0 0.005-0.017 0.011-0.034 0.016-0.051 0.045-0.098 0.109-0.172 0.178-0.255 0.101-0.123 0.196-0.246 0.279-0.383 0.009-0.012 0.018-0.024 0.027-0.036 0.017 0 0.033 0 0.050 0 0.007-0.014 0.014-0.028 0.020-0.043 0.032-0.061 0.067-0.118 0.105-0.176 0.013-0.020 0.026-0.040 0.039-0.060 0.012-0.015 0.024-0.030 0.036-0.046 0.017 0 0.033 0 0.050 0 0.030-0.059 0.054-0.113 0.075-0.175 0.017 0 0.033 0 0.050 0 0-0.017 0-0.033 0-0.050-0.020 0-0.039 0.001-0.059 0.001-0.186 0.004-0.372 0.006-0.558 0.008-0.095 0.001-0.191 0.002-0.287 0.004-0.093 0.002-0.185 0.003-0.278 0.004-0.035 0-0.070 0.001-0.105 0.002-0.318 0.008-0.566-0.072-0.802-0.292-0.225-0.25-0.305-0.496-0.293-0.83 0.019-0.263 0.129-0.437 0.282-0.646 0.012-0.018 0.025-0.035 0.038-0.053 0.056-0.078 0.112-0.155 0.168-0.232 0.094-0.129 0.18-0.259 0.261-0.396 0.011-0.015 0.021-0.029 0.032-0.044 0.017 0 0.033 0 0.050 0 0.008-0.020 0.015-0.039 0.024-0.059 0.027-0.066 0.027-0.066 0.052-0.116 0.017 0 0.033 0 0.050 0 0-0.025 0-0.050 0-0.075 0.017 0 0.033 0 0.050 0 0.005-0.016 0.010-0.032 0.015-0.049 0.049-0.109 0.117-0.202 0.184-0.3 0.014-0.021 0.029-0.042 0.044-0.063 0.101-0.146 0.203-0.29 0.307-0.434 0.054-0.075 0.054-0.075 0.1-0.155 0.017 0 0.033 0 0.050 0 0.008-0.020 0.015-0.039 0.024-0.059 0.027-0.066 0.027-0.066 0.052-0.116 0.017 0 0.033 0 0.050 0 0-0.025 0-0.050 0-0.075 0.017 0 0.033 0 0.050 0 0.005-0.016 0.010-0.032 0.015-0.049 0.049-0.109 0.117-0.202 0.184-0.3 0.014-0.021 0.029-0.042 0.044-0.063 0.101-0.146 0.203-0.29 0.307-0.434 0.054-0.074 0.054-0.074 0.1-0.154 0.017 0 0.033 0 0.050 0 0.008-0.020 0.015-0.039 0.024-0.059 0.027-0.066 0.027-0.066 0.052-0.115 0.017 0 0.033 0 0.050 0 0-0.025 0-0.050 0-0.075 0.017 0 0.033 0 0.050 0 0.005-0.016 0.010-0.032 0.015-0.049 0.049-0.109 0.117-0.202 0.184-0.3 0.014-0.021 0.029-0.042 0.044-0.063 0.101-0.146 0.203-0.29 0.307-0.434 0.054-0.074 0.054-0.074 0.1-0.154 0.017 0 0.033 0 0.050 0 0.008-0.020 0.015-0.039 0.024-0.059 0.027-0.066 0.027-0.066 0.052-0.115 0.017 0 0.033 0 0.050 0 0-0.025 0-0.050 0-0.075 0.017 0 0.033 0 0.050 0 0.008-0.024 0.008-0.024 0.015-0.049 0.049-0.109 0.117-0.202 0.184-0.3 0.014-0.021 0.029-0.042 0.044-0.063 0.101-0.146 0.203-0.29 0.307-0.434 0.054-0.074 0.054-0.074 0.1-0.154 0.017 0 0.033 0 0.050 0 0.008-0.020 0.015-0.039 0.024-0.059 0.027-0.066 0.027-0.066 0.052-0.115 0.017 0 0.033 0 0.050 0 0-0.025 0-0.050 0-0.075 0.017 0 0.033 0 0.050 0 0.008-0.024 0.008-0.024 0.015-0.049 0.049-0.109 0.117-0.202 0.184-0.3 0.014-0.021 0.029-0.042 0.044-0.063 0.101-0.146 0.203-0.29 0.307-0.434 0.054-0.075 0.054-0.075 0.1-0.155 0.017 0 0.033 0 0.050 0 0.008-0.020 0.015-0.039 0.024-0.059 0.027-0.066 0.027-0.066 0.052-0.115 0.017 0 0.033 0 0.050 0 0-0.025 0-0.050 0-0.075 0.017 0 0.033 0 0.050 0 0.005-0.016 0.010-0.032 0.015-0.049 0.049-0.109 0.117-0.202 0.184-0.3 0.014-0.021 0.029-0.042 0.044-0.063 0.101-0.146 0.203-0.29 0.307-0.434 0.054-0.075 0.054-0.075 0.1-0.155 0.017 0 0.033 0 0.050 0 0.008-0.020 0.015-0.039 0.024-0.059 0.027-0.066 0.027-0.066 0.052-0.115 0.017 0 0.033 0 0.050 0 0-0.025 0-0.050 0-0.075 0.017 0 0.033 0 0.050 0 0.005-0.016 0.010-0.032 0.015-0.049 0.049-0.109 0.117-0.202 0.184-0.3 0.021-0.032 0.021-0.032 0.044-0.063 0.101-0.146 0.203-0.29 0.307-0.434 0.054-0.075 0.054-0.075 0.1-0.154 0.017 0 0.033 0 0.050 0 0.008-0.020 0.015-0.039 0.024-0.059 0.027-0.066 0.027-0.066 0.052-0.116 0.017 0 0.033 0 0.050 0 0-0.025 0-0.050 0-0.075 0.017 0 0.033 0 0.050 0 0.008-0.020 0.015-0.039 0.024-0.059 0.027-0.066 0.027-0.066 0.052-0.115 0.017 0 0.033 0 0.050 0 0.008-0.025 0.017-0.050 0.025-0.075 0.017 0 0.033 0 0.050 0 0-0.017 0-0.033 0-0.050 0.416-0.332 0.924-0.319 1.363-0.035z"></path>
<path fill="#348e3c" style="fill: var(--color2, #348e3c)" d="M11.549 20.046c0.032-0 0.064-0 0.097-0.001 0.036 0 0.072-0 0.107-0 0.038-0 0.076-0 0.114-0.001 0.104-0 0.209-0.001 0.313-0.001 0.089-0 0.179-0.001 0.268-0.001 0.848-0.005 1.695-0.006 2.543-0.008 0.111-0 0.221-0 0.331-0.001 0.027 0 0.055 0 0.083 0 0.444-0.001 0.889-0.003 1.333-0.006 0.456-0.003 0.912-0.004 1.368-0.004 0.256-0 0.512-0.001 0.768-0.003 0.218-0.002 0.436-0.002 0.654-0.002 0.111 0 0.223 0 0.334-0.002 0.102-0.001 0.204-0.001 0.306-0 0.037 0 0.074-0 0.11-0.001 0.274-0.006 0.274-0.006 0.392 0.094 0.058 0.069 0.107 0.139 0.155 0.215 0.027 0.037 0.055 0.075 0.082 0.111 0.025 0.035 0.050 0.071 0.075 0.106 0.104 0.145 0.209 0.289 0.316 0.431 0.154 0.204 0.305 0.41 0.457 0.616 0.073 0.099 0.146 0.199 0.22 0.298 0.029 0.040 0.058 0.079 0.087 0.119 0.022 0.029 0.022 0.029 0.044 0.059 0.481 0.653 0.481 0.653 0.525 0.712 0.029 0.040 0.058 0.079 0.087 0.119 0.073 0.099 0.145 0.197 0.218 0.296 0.166 0.227 0.334 0.452 0.503 0.677 0.126 0.168 0.25 0.337 0.374 0.506 0.069 0.093 0.137 0.187 0.206 0.28 0.022 0.030 0.022 0.030 0.045 0.061 0.030 0.041 0.060 0.081 0.090 0.122 0.044 0.060 0.088 0.12 0.133 0.18 0.015 0.020 0.029 0.039 0.044 0.059 0.029 0.039 0.058 0.078 0.087 0.118 0.076 0.104 0.152 0.207 0.229 0.31 0.016 0.021 0.032 0.043 0.048 0.065 0.030 0.041 0.061 0.082 0.091 0.123 0.014 0.018 0.027 0.037 0.042 0.056 0.012 0.016 0.024 0.032 0.037 0.049 0.040 0.057 0.075 0.116 0.11 0.175-5.915 0-11.831 0-17.925 0-0.008-0.017-0.016-0.033-0.025-0.050 0.159-0.227 0.319-0.452 0.489-0.671 0.076-0.098 0.147-0.199 0.219-0.3 0.12-0.169 0.245-0.334 0.37-0.499 0.111-0.148 0.22-0.297 0.329-0.448 0.11-0.152 0.221-0.303 0.336-0.452 0.107-0.138 0.21-0.277 0.311-0.42 0.206-0.291 0.42-0.576 0.635-0.861 0.094-0.125 0.186-0.252 0.277-0.38 0.112-0.156 0.227-0.309 0.345-0.461 0.076-0.099 0.149-0.201 0.222-0.303 0.124-0.172 0.251-0.342 0.38-0.51 0.087-0.113 0.17-0.228 0.251-0.346 0.108-0.153 0.165-0.229 0.36-0.23z"></path>
<path fill="#429f48" style="fill: var(--color3, #429f48)" d="M13.219 12.039c0.025-0 0.050-0.001 0.075-0.001 0.083-0.001 0.166-0.001 0.249-0.002 0.059-0.001 0.119-0.001 0.178-0.002 0.178-0.002 0.357-0.003 0.535-0.004 0.067-0 0.134-0.001 0.202-0.001 0.296-0.002 0.593-0.003 0.89-0.004 0.072 0 0.145-0 0.217-0.001 0.027 0 0.027 0 0.055-0 0.292-0.001 0.583-0.003 0.876-0.006 0.3-0.003 0.6-0.005 0.9-0.005 0.168-0 0.337-0.001 0.505-0.004 0.159-0.002 0.317-0.002 0.475-0.002 0.058 0 0.116-0.001 0.174-0.002 0.461-0.009 0.461-0.009 0.596 0.12 0.073 0.085 0.127 0.176 0.181 0.273 0.027 0.037 0.055 0.073 0.084 0.109 0.024 0.031 0.047 0.062 0.071 0.093 0.020 0.026 0.020 0.026 0.040 0.053 0.044 0.057 0.087 0.114 0.13 0.171 0.033 0.043 0.065 0.086 0.098 0.129 0.051 0.067 0.102 0.134 0.153 0.201 0.092 0.121 0.184 0.242 0.277 0.363 0.116 0.151 0.231 0.303 0.345 0.456 0.122 0.163 0.246 0.323 0.371 0.483 0.11 0.141 0.218 0.283 0.324 0.426 0.084 0.113 0.169 0.224 0.255 0.335 0.098 0.127 0.195 0.254 0.292 0.382 0.017 0.022 0.034 0.044 0.051 0.068 0.071 0.093 0.142 0.186 0.212 0.279 0.036 0.047 0.072 0.095 0.108 0.142 0.034 0.044 0.067 0.088 0.101 0.132 0.090 0.119 0.182 0.237 0.274 0.355 0.046 0.060 0.092 0.12 0.137 0.181 0.108 0.144 0.216 0.287 0.325 0.43 0.017 0.023 0.035 0.046 0.052 0.069 0.086 0.113 0.173 0.226 0.26 0.339 0.264 0.342 0.264 0.342 0.264 0.406 0.017 0 0.033 0 0.050 0 0 0.017 0 0.033 0 0.050-5.016 0-10.032 0-15.2 0 0-0.099 0.033-0.127 0.094-0.204 0.021-0.027 0.041-0.054 0.062-0.081 0.011-0.014 0.022-0.029 0.034-0.044 0.049-0.064 0.098-0.129 0.146-0.194 0.164-0.22 0.332-0.438 0.5-0.656 0.112-0.145 0.223-0.291 0.333-0.439 0.125-0.167 0.252-0.332 0.381-0.497 0.101-0.129 0.199-0.259 0.297-0.39 0.11-0.147 0.223-0.292 0.335-0.438 0.132-0.171 0.262-0.342 0.391-0.515 0.060-0.079 0.121-0.158 0.182-0.236 0.052-0.067 0.102-0.134 0.153-0.202 0.088-0.117 0.177-0.235 0.267-0.351 0.2-0.26 0.4-0.521 0.597-0.784 0.066-0.087 0.133-0.174 0.2-0.261s0.134-0.176 0.199-0.265c0.017-0.023 0.033-0.045 0.050-0.068 0.033-0.045 0.066-0.090 0.098-0.135 0.023-0.031 0.023-0.031 0.046-0.063 0.014-0.018 0.027-0.037 0.041-0.056 0.122-0.135 0.242-0.136 0.413-0.136z"></path>
<path fill="#62ba67" style="fill: var(--color4, #62ba67)" d="M15.95 2.825c0.11 0.038 0.154 0.121 0.212 0.214 0.022 0.034 0.044 0.069 0.067 0.103 0.017 0.027 0.017 0.027 0.035 0.054 0.057 0.086 0.116 0.17 0.176 0.253 0.12 0.168 0.238 0.338 0.357 0.508 0.339 0.488 0.339 0.488 0.683 0.974 0.097 0.135 0.192 0.272 0.285 0.409 0.194 0.282 0.39 0.563 0.59 0.841 0.097 0.135 0.192 0.272 0.285 0.409 0.194 0.282 0.39 0.563 0.59 0.841 0.097 0.135 0.192 0.272 0.285 0.409 0.204 0.298 0.413 0.595 0.623 0.888 0.093 0.13 0.184 0.262 0.276 0.394 0.079 0.114 0.158 0.229 0.238 0.343 0.017 0.024 0.033 0.048 0.050 0.072 0.102 0.146 0.206 0.291 0.312 0.434 0.037 0.053 0.037 0.053 0.037 0.078-3.333 0-6.666 0-10.1 0 0.028-0.112 0.080-0.187 0.145-0.28 0.018-0.026 0.018-0.026 0.037-0.053 0.039-0.056 0.078-0.111 0.117-0.167 0.018-0.026 0.018-0.026 0.037-0.053 0.049-0.069 0.098-0.139 0.148-0.208 0.094-0.133 0.185-0.266 0.277-0.4 0.119-0.175 0.242-0.348 0.367-0.52 0.112-0.154 0.22-0.311 0.327-0.468 0.138-0.202 0.279-0.402 0.42-0.601 0.147-0.207 0.294-0.415 0.438-0.625 0.156-0.228 0.316-0.453 0.476-0.679 0.134-0.189 0.268-0.38 0.399-0.571 0.156-0.228 0.316-0.453 0.476-0.679 0.134-0.189 0.268-0.38 0.399-0.571 0.156-0.228 0.316-0.454 0.477-0.68 0.157-0.221 0.312-0.443 0.461-0.67z"></path>
<path fill="#419e47" style="fill: var(--color5, #419e47)" d="M11.4 20.050c3.036 0 6.072 0 9.2 0 0 0.025 0 0.049 0 0.075-1.165 0-2.329 0.001-3.494 0.001-0.137 0-0.275 0-0.412 0-0.027 0-0.055 0-0.083 0-0.443 0-0.887 0-1.33 0-0.454 0-0.909 0-1.364 0-0.281 0-0.562 0-0.842 0-0.192 0-0.384 0-0.577 0-0.111 0-0.222 0-0.333 0-0.101 0-0.203 0-0.305 0-0.037 0-0.074 0-0.111 0-0.050 0-0.1 0-0.15 0-0.028 0-0.056 0-0.084 0-0.065-0.003-0.065-0.003-0.115-0.028 0-0.017 0-0.033 0-0.050z"></path>
<path fill="#62ba67" style="fill: var(--color4, #62ba67)" d="M12.975 12.050c2.005 0 4.010 0 6.075 0 0 0.017 0 0.033 0 0.050-0.298 0.031-0.595 0.028-0.894 0.028-0.057 0-0.114 0-0.172 0-0.154 0-0.309 0-0.463-0-0.162 0-0.323-0-0.485-0-0.271 0-0.542-0-0.813-0-0.279-0-0.558-0.001-0.837-0.001-0.017 0-0.034 0-0.052 0-0.086 0-0.173 0-0.259 0-0.716-0-1.432-0.001-2.149-0.001 0.017-0.008 0.033-0.017 0.050-0.025 0-0.017 0-0.033 0-0.050z"></path>
</symbol>
</defs>
</svg>
