<svg width="40" height="40" viewBox="0 0 40 40" fill="none" xmlns="http://www.w3.org/2000/svg">
<path d="M19.0592 7.71591C19.3553 6.76136 20.6447 6.76136 20.9408 7.71591L23.3315 15.4219C23.464 15.8488 23.8438 16.1378 24.2724 16.1378H32.0088C32.9672 16.1378 33.3656 17.4222 32.5903 18.0121L26.3314 22.7747C25.9847 23.0385 25.8396 23.5062 25.972 23.9331L28.3627 31.6391C28.6588 32.5936 27.6157 33.3874 26.8404 32.7974L20.5815 28.0349C20.2347 27.771 19.7653 27.771 19.4185 28.0349L13.1596 32.7974C12.3843 33.3874 11.3411 32.5936 11.6373 31.6391L14.028 23.9331C14.1604 23.5062 14.0153 23.0385 13.6686 22.7747L7.40968 18.0121C6.63439 17.4222 7.03284 16.1378 7.99116 16.1378H15.7276C16.1562 16.1378 16.536 15.8488 16.6685 15.4219L19.0592 7.71591Z" fill="#F7FBFB"/>
</svg>
